G04 EAGLE Gerber RS-274X export*
G75*
%MOMM*%
%FSLAX34Y34*%
%LPD*%
%INTop Solder Mask*%
%IPPOS*%
%AMOC8*
5,1,8,0,0,1.08239X$1,22.5*%
G01*
%ADD10R,1.603200X0.603200*%
%ADD11C,0.853200*%
%ADD12R,2.103200X2.503200*%
%ADD13P,2.144431X8X292.500000*%
%ADD14R,1.981200X1.981200*%
%ADD15P,2.144431X8X112.500000*%
%ADD16R,1.603200X0.503200*%
%ADD17C,2.183200*%
%ADD18C,5.528200*%
%ADD19C,3.788200*%
%ADD20R,1.628200X0.653200*%
%ADD21R,1.253200X1.603200*%
%ADD22R,1.653200X1.153200*%
%ADD23R,1.153200X1.653200*%
%ADD24R,1.603200X1.103200*%
%ADD25R,1.673200X1.223200*%
%ADD26R,2.003200X2.453200*%
%ADD27R,1.621200X1.621200*%
%ADD28C,1.621200*%
%ADD29R,1.303200X1.003200*%
%ADD30C,0.959600*%

G36*
X310082Y381857D02*
X310082Y381857D01*
X310084Y381856D01*
X315684Y387356D01*
X315684Y387359D01*
X315685Y387360D01*
X315685Y415260D01*
X315683Y415262D01*
X315684Y415264D01*
X310084Y420764D01*
X310081Y420764D01*
X310080Y420765D01*
X301180Y420765D01*
X301175Y420761D01*
X301175Y420760D01*
X301175Y413010D01*
X301177Y413008D01*
X301176Y413007D01*
X306975Y407058D01*
X306975Y395562D01*
X301176Y389613D01*
X301176Y389612D01*
X301176Y389611D01*
X301175Y389610D01*
X301175Y381860D01*
X301179Y381855D01*
X301180Y381855D01*
X310080Y381855D01*
X310082Y381857D01*
G37*
G36*
X286185Y381859D02*
X286185Y381859D01*
X286185Y381860D01*
X286185Y389610D01*
X286183Y389612D01*
X286184Y389613D01*
X280385Y395562D01*
X280385Y407058D01*
X286184Y413007D01*
X286184Y413008D01*
X286184Y413009D01*
X286185Y413010D01*
X286185Y420760D01*
X286181Y420765D01*
X286180Y420765D01*
X277280Y420765D01*
X277278Y420763D01*
X277277Y420764D01*
X271677Y415264D01*
X271676Y415262D01*
X271675Y415261D01*
X271675Y415260D01*
X271675Y387360D01*
X271677Y387358D01*
X271677Y387356D01*
X277277Y381856D01*
X277279Y381856D01*
X277280Y381855D01*
X286180Y381855D01*
X286185Y381859D01*
G37*
D10*
X50000Y383000D03*
X50000Y376500D03*
X50000Y370000D03*
X50000Y363500D03*
X50000Y357000D03*
D11*
X45000Y390000D03*
X45000Y350000D03*
D12*
X23500Y407500D03*
X23500Y332500D03*
D13*
X126600Y507300D03*
D14*
X152000Y507300D03*
D13*
X101200Y507300D03*
X75800Y507300D03*
X50400Y507300D03*
X25000Y507300D03*
X355500Y507100D03*
D14*
X380900Y507100D03*
D13*
X330100Y507100D03*
X304700Y507100D03*
X279300Y507100D03*
X253900Y507100D03*
X228500Y507100D03*
X203100Y507100D03*
D15*
X279916Y26100D03*
D14*
X254516Y26100D03*
D15*
X305316Y26100D03*
X330716Y26100D03*
X356116Y26100D03*
X381516Y26100D03*
X406916Y26100D03*
X432316Y26100D03*
X457716Y26100D03*
X483116Y26100D03*
D16*
X135900Y339000D03*
X135900Y334000D03*
X135900Y329000D03*
X135900Y324000D03*
X135900Y319000D03*
X179900Y319000D03*
X179900Y324000D03*
X179900Y329000D03*
X179900Y334000D03*
X179900Y339000D03*
D13*
X531860Y507000D03*
D14*
X557260Y507000D03*
D13*
X506460Y507000D03*
X481060Y507000D03*
X455660Y507000D03*
X430260Y507000D03*
D17*
X59600Y192700D03*
X781600Y192700D03*
D18*
X146000Y114000D03*
D19*
X781600Y114000D03*
D18*
X698000Y271400D03*
D20*
X321130Y346110D03*
X321130Y339610D03*
X321130Y333110D03*
X321130Y326610D03*
X365370Y326610D03*
X365370Y333110D03*
X365370Y339610D03*
X365370Y346110D03*
D21*
X278280Y328030D03*
X297280Y328030D03*
D22*
X200600Y395100D03*
X200600Y415100D03*
D23*
X185800Y367000D03*
X205800Y367000D03*
X142000Y367100D03*
X162000Y367100D03*
X99200Y367200D03*
X119200Y367200D03*
D24*
X168700Y396900D03*
X168700Y415900D03*
X134600Y397000D03*
X134600Y416000D03*
X100000Y397100D03*
X100000Y416100D03*
D25*
X213900Y320700D03*
X213900Y336700D03*
X100200Y335600D03*
X100200Y319600D03*
D23*
X277880Y357610D03*
X297880Y357610D03*
D26*
X346840Y394470D03*
X376840Y394470D03*
X400640Y337020D03*
X430640Y337020D03*
D27*
X584030Y349640D03*
D28*
X559030Y349640D03*
X534030Y349640D03*
X509030Y349640D03*
D21*
X582280Y439670D03*
X601280Y439670D03*
D29*
X503400Y445790D03*
X503400Y434790D03*
X467900Y440290D03*
D21*
X534320Y439930D03*
X553320Y439930D03*
D13*
X177608Y26000D03*
D14*
X203008Y26000D03*
D13*
X152208Y26000D03*
X126808Y26000D03*
X101408Y26000D03*
X76008Y26000D03*
X50608Y26000D03*
X25208Y26000D03*
D23*
X228760Y367030D03*
X248760Y367030D03*
D30*
X152556Y378930D03*
X120396Y324104D03*
X166116Y306324D03*
X157226Y343408D03*
X193040Y336804D03*
X198272Y314300D03*
X317500Y363220D03*
X287020Y401320D03*
X497840Y481330D03*
X120650Y312420D03*
X245110Y386080D03*
X305276Y339788D03*
X284480Y344170D03*
X342900Y339788D03*
X299720Y401320D03*
X407670Y502920D03*
X400050Y359410D03*
X408940Y433070D03*
X165100Y335280D03*
X219710Y350520D03*
M02*
