G04 EAGLE Gerber RS-274X export*
G75*
%MOMM*%
%FSLAX34Y34*%
%LPD*%
%INMechanical*%
%IPPOS*%
%AMOC8*
5,1,8,0,0,1.08239X$1,22.5*%
G01*
%ADD10C,0.203200*%
%ADD11C,0.000000*%


D10*
X572770Y533400D02*
X786130Y320040D01*
X824230Y320040D01*
X825500Y320040D01*
X824230Y320040D02*
X839470Y304800D01*
X840740Y304800D01*
X840740Y73660D01*
X574040Y533400D02*
X15240Y533400D01*
X0Y518160D01*
X0Y8890D01*
X10160Y-1270D01*
X831850Y64770D02*
X840740Y73660D01*
X831850Y64770D02*
X788670Y64770D01*
X722630Y-1270D01*
X10160Y-1270D01*
D11*
X41750Y390000D02*
X41752Y390113D01*
X41758Y390227D01*
X41768Y390340D01*
X41782Y390452D01*
X41799Y390564D01*
X41821Y390676D01*
X41847Y390786D01*
X41876Y390896D01*
X41909Y391004D01*
X41946Y391112D01*
X41987Y391217D01*
X42031Y391322D01*
X42079Y391425D01*
X42130Y391526D01*
X42185Y391625D01*
X42244Y391722D01*
X42306Y391817D01*
X42371Y391910D01*
X42439Y392001D01*
X42510Y392089D01*
X42585Y392175D01*
X42662Y392258D01*
X42742Y392338D01*
X42825Y392415D01*
X42911Y392490D01*
X42999Y392561D01*
X43090Y392629D01*
X43183Y392694D01*
X43278Y392756D01*
X43375Y392815D01*
X43474Y392870D01*
X43575Y392921D01*
X43678Y392969D01*
X43783Y393013D01*
X43888Y393054D01*
X43996Y393091D01*
X44104Y393124D01*
X44214Y393153D01*
X44324Y393179D01*
X44436Y393201D01*
X44548Y393218D01*
X44660Y393232D01*
X44773Y393242D01*
X44887Y393248D01*
X45000Y393250D01*
X45113Y393248D01*
X45227Y393242D01*
X45340Y393232D01*
X45452Y393218D01*
X45564Y393201D01*
X45676Y393179D01*
X45786Y393153D01*
X45896Y393124D01*
X46004Y393091D01*
X46112Y393054D01*
X46217Y393013D01*
X46322Y392969D01*
X46425Y392921D01*
X46526Y392870D01*
X46625Y392815D01*
X46722Y392756D01*
X46817Y392694D01*
X46910Y392629D01*
X47001Y392561D01*
X47089Y392490D01*
X47175Y392415D01*
X47258Y392338D01*
X47338Y392258D01*
X47415Y392175D01*
X47490Y392089D01*
X47561Y392001D01*
X47629Y391910D01*
X47694Y391817D01*
X47756Y391722D01*
X47815Y391625D01*
X47870Y391526D01*
X47921Y391425D01*
X47969Y391322D01*
X48013Y391217D01*
X48054Y391112D01*
X48091Y391004D01*
X48124Y390896D01*
X48153Y390786D01*
X48179Y390676D01*
X48201Y390564D01*
X48218Y390452D01*
X48232Y390340D01*
X48242Y390227D01*
X48248Y390113D01*
X48250Y390000D01*
X48248Y389887D01*
X48242Y389773D01*
X48232Y389660D01*
X48218Y389548D01*
X48201Y389436D01*
X48179Y389324D01*
X48153Y389214D01*
X48124Y389104D01*
X48091Y388996D01*
X48054Y388888D01*
X48013Y388783D01*
X47969Y388678D01*
X47921Y388575D01*
X47870Y388474D01*
X47815Y388375D01*
X47756Y388278D01*
X47694Y388183D01*
X47629Y388090D01*
X47561Y387999D01*
X47490Y387911D01*
X47415Y387825D01*
X47338Y387742D01*
X47258Y387662D01*
X47175Y387585D01*
X47089Y387510D01*
X47001Y387439D01*
X46910Y387371D01*
X46817Y387306D01*
X46722Y387244D01*
X46625Y387185D01*
X46526Y387130D01*
X46425Y387079D01*
X46322Y387031D01*
X46217Y386987D01*
X46112Y386946D01*
X46004Y386909D01*
X45896Y386876D01*
X45786Y386847D01*
X45676Y386821D01*
X45564Y386799D01*
X45452Y386782D01*
X45340Y386768D01*
X45227Y386758D01*
X45113Y386752D01*
X45000Y386750D01*
X44887Y386752D01*
X44773Y386758D01*
X44660Y386768D01*
X44548Y386782D01*
X44436Y386799D01*
X44324Y386821D01*
X44214Y386847D01*
X44104Y386876D01*
X43996Y386909D01*
X43888Y386946D01*
X43783Y386987D01*
X43678Y387031D01*
X43575Y387079D01*
X43474Y387130D01*
X43375Y387185D01*
X43278Y387244D01*
X43183Y387306D01*
X43090Y387371D01*
X42999Y387439D01*
X42911Y387510D01*
X42825Y387585D01*
X42742Y387662D01*
X42662Y387742D01*
X42585Y387825D01*
X42510Y387911D01*
X42439Y387999D01*
X42371Y388090D01*
X42306Y388183D01*
X42244Y388278D01*
X42185Y388375D01*
X42130Y388474D01*
X42079Y388575D01*
X42031Y388678D01*
X41987Y388783D01*
X41946Y388888D01*
X41909Y388996D01*
X41876Y389104D01*
X41847Y389214D01*
X41821Y389324D01*
X41799Y389436D01*
X41782Y389548D01*
X41768Y389660D01*
X41758Y389773D01*
X41752Y389887D01*
X41750Y390000D01*
X41750Y350000D02*
X41752Y350113D01*
X41758Y350227D01*
X41768Y350340D01*
X41782Y350452D01*
X41799Y350564D01*
X41821Y350676D01*
X41847Y350786D01*
X41876Y350896D01*
X41909Y351004D01*
X41946Y351112D01*
X41987Y351217D01*
X42031Y351322D01*
X42079Y351425D01*
X42130Y351526D01*
X42185Y351625D01*
X42244Y351722D01*
X42306Y351817D01*
X42371Y351910D01*
X42439Y352001D01*
X42510Y352089D01*
X42585Y352175D01*
X42662Y352258D01*
X42742Y352338D01*
X42825Y352415D01*
X42911Y352490D01*
X42999Y352561D01*
X43090Y352629D01*
X43183Y352694D01*
X43278Y352756D01*
X43375Y352815D01*
X43474Y352870D01*
X43575Y352921D01*
X43678Y352969D01*
X43783Y353013D01*
X43888Y353054D01*
X43996Y353091D01*
X44104Y353124D01*
X44214Y353153D01*
X44324Y353179D01*
X44436Y353201D01*
X44548Y353218D01*
X44660Y353232D01*
X44773Y353242D01*
X44887Y353248D01*
X45000Y353250D01*
X45113Y353248D01*
X45227Y353242D01*
X45340Y353232D01*
X45452Y353218D01*
X45564Y353201D01*
X45676Y353179D01*
X45786Y353153D01*
X45896Y353124D01*
X46004Y353091D01*
X46112Y353054D01*
X46217Y353013D01*
X46322Y352969D01*
X46425Y352921D01*
X46526Y352870D01*
X46625Y352815D01*
X46722Y352756D01*
X46817Y352694D01*
X46910Y352629D01*
X47001Y352561D01*
X47089Y352490D01*
X47175Y352415D01*
X47258Y352338D01*
X47338Y352258D01*
X47415Y352175D01*
X47490Y352089D01*
X47561Y352001D01*
X47629Y351910D01*
X47694Y351817D01*
X47756Y351722D01*
X47815Y351625D01*
X47870Y351526D01*
X47921Y351425D01*
X47969Y351322D01*
X48013Y351217D01*
X48054Y351112D01*
X48091Y351004D01*
X48124Y350896D01*
X48153Y350786D01*
X48179Y350676D01*
X48201Y350564D01*
X48218Y350452D01*
X48232Y350340D01*
X48242Y350227D01*
X48248Y350113D01*
X48250Y350000D01*
X48248Y349887D01*
X48242Y349773D01*
X48232Y349660D01*
X48218Y349548D01*
X48201Y349436D01*
X48179Y349324D01*
X48153Y349214D01*
X48124Y349104D01*
X48091Y348996D01*
X48054Y348888D01*
X48013Y348783D01*
X47969Y348678D01*
X47921Y348575D01*
X47870Y348474D01*
X47815Y348375D01*
X47756Y348278D01*
X47694Y348183D01*
X47629Y348090D01*
X47561Y347999D01*
X47490Y347911D01*
X47415Y347825D01*
X47338Y347742D01*
X47258Y347662D01*
X47175Y347585D01*
X47089Y347510D01*
X47001Y347439D01*
X46910Y347371D01*
X46817Y347306D01*
X46722Y347244D01*
X46625Y347185D01*
X46526Y347130D01*
X46425Y347079D01*
X46322Y347031D01*
X46217Y346987D01*
X46112Y346946D01*
X46004Y346909D01*
X45896Y346876D01*
X45786Y346847D01*
X45676Y346821D01*
X45564Y346799D01*
X45452Y346782D01*
X45340Y346768D01*
X45227Y346758D01*
X45113Y346752D01*
X45000Y346750D01*
X44887Y346752D01*
X44773Y346758D01*
X44660Y346768D01*
X44548Y346782D01*
X44436Y346799D01*
X44324Y346821D01*
X44214Y346847D01*
X44104Y346876D01*
X43996Y346909D01*
X43888Y346946D01*
X43783Y346987D01*
X43678Y347031D01*
X43575Y347079D01*
X43474Y347130D01*
X43375Y347185D01*
X43278Y347244D01*
X43183Y347306D01*
X43090Y347371D01*
X42999Y347439D01*
X42911Y347510D01*
X42825Y347585D01*
X42742Y347662D01*
X42662Y347742D01*
X42585Y347825D01*
X42510Y347911D01*
X42439Y347999D01*
X42371Y348090D01*
X42306Y348183D01*
X42244Y348278D01*
X42185Y348375D01*
X42130Y348474D01*
X42079Y348575D01*
X42031Y348678D01*
X41987Y348783D01*
X41946Y348888D01*
X41909Y348996D01*
X41876Y349104D01*
X41847Y349214D01*
X41821Y349324D01*
X41799Y349436D01*
X41782Y349548D01*
X41768Y349660D01*
X41758Y349773D01*
X41752Y349887D01*
X41750Y350000D01*
M02*
