G04 EAGLE Gerber RS-274X export*
G75*
%MOMM*%
%FSLAX34Y34*%
%LPD*%
%INBottom Solder Mask*%
%IPPOS*%
%AMOC8*
5,1,8,0,0,1.08239X$1,22.5*%
G01*
%ADD10C,0.853200*%
%ADD11P,2.144431X8X292.500000*%
%ADD12R,1.981200X1.981200*%
%ADD13P,2.144431X8X112.500000*%
%ADD14C,2.183200*%
%ADD15C,5.528200*%
%ADD16C,3.788200*%
%ADD17R,1.621200X1.621200*%
%ADD18C,1.621200*%
%ADD19C,0.959600*%


D10*
X45000Y390000D03*
X45000Y350000D03*
D11*
X126600Y507300D03*
D12*
X152000Y507300D03*
D11*
X101200Y507300D03*
X75800Y507300D03*
X50400Y507300D03*
X25000Y507300D03*
X355500Y507100D03*
D12*
X380900Y507100D03*
D11*
X330100Y507100D03*
X304700Y507100D03*
X279300Y507100D03*
X253900Y507100D03*
X228500Y507100D03*
X203100Y507100D03*
D13*
X279916Y26100D03*
D12*
X254516Y26100D03*
D13*
X305316Y26100D03*
X330716Y26100D03*
X356116Y26100D03*
X381516Y26100D03*
X406916Y26100D03*
X432316Y26100D03*
X457716Y26100D03*
X483116Y26100D03*
D11*
X531860Y507000D03*
D12*
X557260Y507000D03*
D11*
X506460Y507000D03*
X481060Y507000D03*
X455660Y507000D03*
X430260Y507000D03*
D14*
X59600Y192700D03*
X781600Y192700D03*
D15*
X146000Y114000D03*
D16*
X781600Y114000D03*
D15*
X698000Y271400D03*
D17*
X584030Y349640D03*
D18*
X559030Y349640D03*
X534030Y349640D03*
X509030Y349640D03*
D11*
X177608Y26000D03*
D12*
X203008Y26000D03*
D11*
X152208Y26000D03*
X126808Y26000D03*
X101408Y26000D03*
X76008Y26000D03*
X50608Y26000D03*
X25208Y26000D03*
D19*
X152556Y378930D03*
X120396Y324104D03*
X166116Y306324D03*
X157226Y343408D03*
X193040Y336804D03*
X198272Y314300D03*
X317500Y363220D03*
X287020Y401320D03*
X497840Y481330D03*
X120650Y312420D03*
X245110Y386080D03*
X305276Y339788D03*
X284480Y344170D03*
X342900Y339788D03*
X299720Y401320D03*
X407670Y502920D03*
X400050Y359410D03*
X408940Y433070D03*
X165100Y335280D03*
X219710Y350520D03*
M02*
