M48
;GenerationSoftware,Autodesk,EAGLE,9.6.2*%
;CreationDate,2021-03-01T17:51:02Z*%
FMAT,2
ICI,OFF
METRIC,TZ,000.000
T7C0.350
T6C0.650
T5C0.910
T4C1.016
T3C1.320
T2C2.390
T1C3.550
%
G90
M71
T1
X69800Y27140
X14600Y11400
T2
X78160Y11400
T3
X78160Y19270
X5960Y19270
T4
X43232Y2610
X45772Y2610
X48312Y2610
X53186Y50700
X55726Y50700
X50646Y50700
X48106Y50700
X45566Y50700
X22850Y50710
X43026Y50700
X17761Y2600
X20301Y2600
X15221Y2600
X12681Y2600
X10141Y2600
X7601Y2600
X5061Y2600
X12660Y50730
X15200Y50730
X10120Y50730
X7580Y50730
X5040Y50730
X2500Y50730
X35550Y50710
X38090Y50710
X33010Y50710
X30470Y50710
X27930Y50710
X25390Y50710
X2521Y2600
X20310Y50710
X27992Y2610
X25452Y2610
X30532Y2610
X33072Y2610
X35612Y2610
X38152Y2610
X40692Y2610
T5
X53403Y34964
X58403Y34964
X55903Y34964
X50903Y34964
T6
X4500Y35000
X4500Y39000
T7
X15256Y37893
X12040Y32410
X16612Y30632
X15723Y34341
X19304Y33680
X19827Y31430
X31750Y36322
X28702Y40132
X12065Y31242
X24511Y38608
X30528Y33979
X28448Y34417
X34290Y33979
X29972Y40132
X40767Y50292
X40005Y35941
X49784Y48133
X21971Y35052
X16510Y33528
X40894Y43307
M30