G04 EAGLE Gerber RS-274X export*
G75*
%MOMM*%
%FSLAX34Y34*%
%LPD*%
%INTop Paste*%
%IPPOS*%
%AMOC8*
5,1,8,0,0,1.08239X$1,22.5*%
G01*
%ADD10R,1.400000X0.400000*%
%ADD11R,1.900000X2.300000*%
%ADD12R,1.400000X0.300000*%
%ADD13R,1.425000X0.450000*%
%ADD14R,1.050000X1.400000*%
%ADD15R,1.450000X0.950000*%
%ADD16R,0.950000X1.450000*%
%ADD17R,1.400000X0.900000*%
%ADD18R,1.470000X1.020000*%
%ADD19R,1.800000X2.250000*%
%ADD20R,1.100000X0.800000*%

G36*
X310082Y381857D02*
X310082Y381857D01*
X310084Y381856D01*
X315684Y387356D01*
X315684Y387359D01*
X315685Y387360D01*
X315685Y415260D01*
X315683Y415262D01*
X315684Y415264D01*
X310084Y420764D01*
X310081Y420764D01*
X310080Y420765D01*
X301180Y420765D01*
X301175Y420761D01*
X301175Y420760D01*
X301175Y413010D01*
X301177Y413008D01*
X301176Y413007D01*
X306975Y407058D01*
X306975Y395562D01*
X301176Y389613D01*
X301176Y389612D01*
X301176Y389611D01*
X301175Y389610D01*
X301175Y381860D01*
X301179Y381855D01*
X301180Y381855D01*
X310080Y381855D01*
X310082Y381857D01*
G37*
G36*
X286185Y381859D02*
X286185Y381859D01*
X286185Y381860D01*
X286185Y389610D01*
X286183Y389612D01*
X286184Y389613D01*
X280385Y395562D01*
X280385Y407058D01*
X286184Y413007D01*
X286184Y413008D01*
X286184Y413009D01*
X286185Y413010D01*
X286185Y420760D01*
X286181Y420765D01*
X286180Y420765D01*
X277280Y420765D01*
X277278Y420763D01*
X277277Y420764D01*
X271677Y415264D01*
X271676Y415262D01*
X271675Y415261D01*
X271675Y415260D01*
X271675Y387360D01*
X271677Y387358D01*
X271677Y387356D01*
X277277Y381856D01*
X277279Y381856D01*
X277280Y381855D01*
X286180Y381855D01*
X286185Y381859D01*
G37*
D10*
X50000Y383000D03*
X50000Y376500D03*
X50000Y370000D03*
X50000Y363500D03*
X50000Y357000D03*
D11*
X23500Y407500D03*
X23500Y332500D03*
D12*
X135900Y339000D03*
X135900Y334000D03*
X135900Y329000D03*
X135900Y324000D03*
X135900Y319000D03*
X179900Y319000D03*
X179900Y324000D03*
X179900Y329000D03*
X179900Y334000D03*
X179900Y339000D03*
D13*
X321130Y346110D03*
X321130Y339610D03*
X321130Y333110D03*
X321130Y326610D03*
X365370Y326610D03*
X365370Y333110D03*
X365370Y339610D03*
X365370Y346110D03*
D14*
X278280Y328030D03*
X297280Y328030D03*
D15*
X200600Y395100D03*
X200600Y415100D03*
D16*
X185800Y367000D03*
X205800Y367000D03*
X142000Y367100D03*
X162000Y367100D03*
X99200Y367200D03*
X119200Y367200D03*
D17*
X168700Y396900D03*
X168700Y415900D03*
X134600Y397000D03*
X134600Y416000D03*
X100000Y397100D03*
X100000Y416100D03*
D18*
X213900Y320700D03*
X213900Y336700D03*
X100200Y335600D03*
X100200Y319600D03*
D16*
X277880Y357610D03*
X297880Y357610D03*
D19*
X346840Y394470D03*
X376840Y394470D03*
X400640Y337020D03*
X430640Y337020D03*
D14*
X582280Y439670D03*
X601280Y439670D03*
D20*
X503400Y445790D03*
X503400Y434790D03*
X467900Y440290D03*
D14*
X534320Y439930D03*
X553320Y439930D03*
D16*
X228760Y367030D03*
X248760Y367030D03*
M02*
